<svg xmlns="http://www.w3.org/2000/svg" viewBox="-0.3 0 148.3 37.4">
	<path fill="#ff8300" d="M296.79,310.77h0a14.18,14.18,0,1,1-28.35,0v-12.3s6.73,1.68,6.8,8.88v3.35a7.39,7.39,0,1,0,14.74,0v-7c.28-6,5.36-7.92,6.67-8.55h.14v15.61Zm-36.47-14.35a14.93,14.93,0,0,1,5.3,1V305a8.14,8.14,0,0,0-5.3-1.94,8,8,0,0,0-8.09,7.87V325.2h-6.81V299.09a10.49,10.49,0,0,1,4.59,1.37,15.07,15.07,0,0,1,10.31-4M227.8,318.77a8,8,0,1,1,8.21-8,8.1,8.1,0,0,1-8.21,8m0-22.35a14.4,14.4,0,1,0,0,28.78,15,15,0,0,0,9-3c1.53,2.49,5.82,3,5.82,3V310.81a14.6,14.6,0,0,0-14.81-14.39m118.06,22.35a8,8,0,1,1,8.2-8,8.1,8.1,0,0,1-8.2,8m0-22.35a14.4,14.4,0,1,0,0,28.78,15,15,0,0,0,9-3c1.53,2.49,5.82,3,5.82,3V310.81a14.59,14.59,0,0,0-14.8-14.39m-31.3,22.35a8,8,0,1,1,8.21-8,8.1,8.1,0,0,1-8.21,8m0-22.35a15,15,0,0,0-8.15,2.38v-2.25c-.28-6-5.2-7.93-6.51-8.55h-.15v37.29s4.44-.46,6.09-2.88a15,15,0,0,0,8.72,2.79,14.4,14.4,0,1,0,0-28.78" transform="translate(-213 -288)" />
</svg>