<svg id="Art" xmlns="http://www.w3.org/2000/svg" viewBox="0 0 150.88751 59.76215">
	<defs>
		<style>.cls-1{fill:#FFFFFF;}.cls-2{fill:#009639;}</style>
	</defs>
<path class="cls-2" d="M7.60573,45.18144a3.01888,3.01888,0,0,0,1.13416,1.12547L31.94166,59.70246l.00073-.00072a3.04445,3.04445,0,0,0,3.08381,0L58.2287,46.30619a3.04264,3.04264,0,0,0,1.54118-2.66955V16.84553l-.00072-.00072a3.0436,3.0436,0,0,0-1.54191-2.67027L35.02476.779V.77826a3.04048,3.04048,0,0,0-3.08165,0V.779L8.74134,14.17454a3.04231,3.04231,0,0,0-1.54263,2.67027l-.00072.00072V43.63664a3.02484,3.02484,0,0,0,.407,1.5448" transform="translate(-7.19784 -0.35892)"/>
<path class="cls-1" d="M26.05525,40.43948a2.98387,2.98387,0,0,1-5.96774,0l.00073.00072.00289-20.483a3.11074,3.11074,0,0,1,3.388-2.89913,5.30625,5.30625,0,0,1,4.06733,1.81856l.90168,1.07912L40.91377,34.87369V20.04052h-.00145a2.98387,2.98387,0,1,1,5.96774,0h-.00072L46.87644,40.522a3.11118,3.11118,0,0,1-3.388,2.89914,5.30274,5.30274,0,0,1-4.06734-1.81857L26.0538,25.60558V40.4402Z" transform="translate(-7.19784 -0.35892)"/>
<polygon class="cls-1" points="144.002 19.788 140.069 19.788 135.736 26.657 131.518 19.788 127.442 19.788 133.513 29.707 127.385 39.968 131.261 39.968 135.565 33.042 139.784 39.968 143.86 39.968 137.731 29.964 144.002 19.788"/>
<polygon class="cls-1" points="122.36 19.788 122.36 33.527 114.436 19.788 111.158 19.788 111.158 39.968 114.436 39.968 114.436 26.315 122.36 39.968 125.667 39.968 125.667 19.788 122.36 19.788"/>
<rect class="cls-1" x="104.95584" y="19.78766" width="3.50613" height="20.18067"/>
<path class="cls-1" d="M109.45724,27.32946V26.1894c0-3.90495-2.87881-6.44192-7.92413-6.44192-5.01668,0-7.8955,2.537-7.8955,6.44192v8.09505c0,3.90524,2.90746,6.44192,7.92414,6.44192s7.89549-2.53668,7.89549-6.44192V29.55294h-8.03807v3.24929h4.53225v1.28266c0,2.10953-1.59616,3.39219-4.41831,3.39219-2.7932,0-4.38937-1.28266-4.38937-3.39219V26.389c0-2.10922,1.59617-3.39187,4.418-3.39187,2.79351,0,4.38967,1.28265,4.38967,3.39187v.94051Z" transform="translate(-7.19784 -0.35892)"/>
<polygon class="cls-1" points="80.42 19.788 80.42 33.527 72.496 19.788 69.218 19.788 69.218 39.968 72.496 39.968 72.496 26.315 80.42 39.968 83.726 39.968 83.726 19.788 80.42 19.788"/>
</svg>