<svg xmlns="http://www.w3.org/2000/svg" viewBox="55 122 862 196">
	<path fill="#00aeef" d="M381.07 185.57c37.44-66.62 124.41-80.22 181.24-30.4q.37.32.87.24c36.65-5.92 71.77 11.87 88.99 44.17 3.47 6.51-6.26 12.72-10.73 4.68-16.5-29.66-48.89-43.6-82.22-36.23a.93.93 0 0 1-.85-.24c-53.35-52.6-139-35.7-170.92 31.05a1.06 1.05 20.5 0 1-1.24.56c-24.9-6.93-50.61 2.7-65.27 24.27-2.66 3.91-9.2 1.22-9.93-3.17-.65-3.91 4.67-9.61 7.19-12.27q22.17-23.41 54.52-22.78c1.92.03 5.04.54 7.58.56a.87.86 14.9 0 0 .77-.44Z" />
	<rect width="25" height="137.26" x="279.75" y="179.49" rx=".26" />
	<rect width="12.76" height="137.28" x="553.5" y="179.47" rx=".26" />
	<path d="M900.87 235.17a.33.33 0 0 0 .59-.2l.06-55.15q0-.4.4-.4l11.34.11q.78.01.78.79l.01 135.91q0 .52-.53.52H902q-.5 0-.5-.5v-15.73a.37.37 0 0 0-.65-.24c-29.44 34.95-84.97 18.6-89.86-27.31-2.96-27.85 16.54-54.94 45.45-57.55q28.16-2.54 44.43 19.75Zm-34.434 72.08a39.99 39.25 85.2 0 0 35.766-43.134 39.99 39.25 85.2 0 0-42.458-36.566 39.99 39.25 85.2 0 0-35.766 43.134 39.99 39.25 85.2 0 0 42.458 36.566ZM187.37 275c5.35 25.59 35.04 28.2 51.97 12.86a.61.6-53.2 0 1 .66-.1l19.99 9.35q.53.25.2.74c-11.37 16.59-29.6 22.58-48.99 21.23-31.98-2.23-52.13-28.8-47.5-60.09 3.43-23.22 21.57-41.99 45.38-43.63 37.44-2.58 59.59 22.59 58.12 58.7a.46.46 0 0 1-.46.44h-78.97q-.51 0-.4.5Zm54.57-20.83c-3.09-9.96-12.61-16.57-22.76-17.65q-20.83-2.22-30.36 17.16-.53 1.07.67 1.07h52.02q.61 0 .43-.58ZM422.12 267.24a52.11 52.11 0 0 1-52.11 52.11 52.11 52.11 0 0 1-52.11-52.11 52.11 52.11 0 0 1 52.11-52.11 52.11 52.11 0 0 1 52.11 52.11Zm-53.13 28.974a28.94 27.23 91.9 0 0 28.175-28.021 28.94 27.23 91.9 0 0-26.256-29.827 28.94 27.23 91.9 0 0-28.174 28.021 28.94 27.23 91.9 0 0 26.255 29.827ZM475.84 317.85c-44.62-8.94-55.59-65.66-20.36-91.88 23.1-17.2 63.85-14.37 79.74 11.86q.28.46-.18.75l-9.08 5.64q-.49.3-.86-.14-15.66-18.45-38.5-16.76c-50.54 3.72-52.08 73.6-2.64 79.64q24.43 2.99 41.05-16.42.39-.45.89-.13l9.24 6.11q.47.31.13.76c-13.89 18.95-37.05 25.05-59.43 20.57ZM632.753 319.386a52.19 51.99 92.6 0 1-49.57-54.494 52.19 51.99 92.6 0 1 54.304-49.778 52.19 51.99 92.6 0 1 49.57 54.494 52.19 51.99 92.6 0 1-54.304 49.778Zm2.426-12.156a39.73 38.73 89.9 0 0 38.66-39.798 39.73 38.73 89.9 0 0-38.798-39.662 39.73 38.73 89.9 0 0-38.66 39.798 39.73 38.73 89.9 0 0 38.798 39.662ZM132.91 217.49l24.7.02a.3.3 0 0 1 .27.42l-42.06 98.64a.3.3 0 0 1-.28.18h-15.8a.3.3 0 0 1-.28-.18l-42.15-98.65a.3.3 0 0 1 .27-.42h24.85a.3.3 0 0 1 .28.18l24.71 57.56a.3.3 0 0 0 .56 0l24.65-57.57a.3.3 0 0 1 .28-.18Z" />
	<path d="M751.9 319.09c-20.92 1.32-40.11-7.42-45.17-29.35-3.44-14.93-2.15-30.33-2.38-45.44q-.21-13.06-.06-26.13 0-.54.55-.55l11.55-.17q.63-.01.63.62-.15 26.88.31 53.67c.29 17.67 5.33 31.04 24.35 34.51 10.66 1.94 22.7-1.24 29.65-9.63 6.19-7.5 6.38-16.31 6.47-25.69q.25-26.49.21-52.93a.53.53 0 0 1 .53-.53l12.11.09q.54.01.54.55.19 24.87.02 49.7c-.2 27.22-8.92 49.36-39.31 51.28Z" />
</svg>