<svg xmlns="http://www.w3.org/2000/svg" viewBox="0 0 90 22.6">
	<defs>
		<style>.cls-1{fill:#e60012;}.cls-2{fill:#4c4948;}</style>
	</defs>
	<path class="cls-1" d="M21,0V9.38H7.73V0H0V22.67H7.73V12.11H21V22.67h7.72V0ZM31.82.36V3.42a72.84,72.84,0,0,1,10.1-.74c2.19,0,5.12.23,6.16.77a2.2,2.2,0,0,1,1.33,2.13,3,3,0,0,1-.92,2.27,6,6,0,0,1-3.14,1.24,46.27,46.27,0,0,1-6.17.29H34.47V12h5.07a34.12,34.12,0,0,1,6.8.43,6.67,6.67,0,0,1,3.21,1.46,3.15,3.15,0,0,1-1.19,5.17,17.47,17.47,0,0,1-6.51.85c-3.48-.11-7-.45-10.45-.81v3.07c3.65.26,9.4.48,10.73.48,5.07,0,10.75-.28,13.6-1.71a5.73,5.73,0,0,0,3.06-4.65,5,5,0,0,0-.7-2.81,5,5,0,0,0-2.64-1.85,20.7,20.7,0,0,0-4.6-1.18A13,13,0,0,0,55.8,8.61a4.22,4.22,0,0,0,2.08-3.47c0-1.56-.77-2.91-2.92-3.84S46.87,0,42.89,0c-2.3,0-7.15.09-11.07.36M64.7,2.86a9.86,9.86,0,0,0-4.05,8.49,9.92,9.92,0,0,0,4.24,8.42c3,2.13,9.81,2.9,16,2.9,3,0,6.15-.21,9.11-.43V18.82a65.07,65.07,0,0,1-7.75.69c-3.66.15-6.9-.34-9.28-1.87-2.16-1.38-3.21-3-3.21-6.37,0-2.36.45-4.51,2.37-6C74.61,3.39,78,2.92,81.9,2.92a40.36,40.36,0,0,1,8.1.85V.28C86.72.07,84.83,0,80.51,0,74.18,0,67.66.75,64.7,2.86" />
</svg>