<svg xmlns="http://www.w3.org/2000/svg" viewBox="0 51 256 96">
	<path fill="#0095d3" d="M114.58 127.67c7.52 4.03 17.01 6.04 25.43 3.92 5.84-1.47 10.25-6.5 9.33-12.6-2.68-17.87-49.15-6.12-51.21-37.62-.82-12.48 5.86-22.99 18.06-27.05 13.72-4.56 29.19-1.96 41.33 5.52q3.53 2.17 4.53 4.68c1.81 4.53-2.01 10.12-6.92 10.29-3.83.13-8.74-3.64-12.21-5.21-6.89-3.11-18.02-4.72-24.29.08-4.47 3.42-5.41 8.82-2.59 13.79 2.73 4.82 17.16 7.85 23.2 9.31 12.26 2.97 24.41 8.82 26.3 22.46 2.04 14.76-7.01 27.58-21.55 30.52q-24.55 4.97-44.87-9.74c-6.82-4.93-4.36-14.96 3.83-14.53 4.16.21 8.68 4.6 11.63 6.18ZM0 139.94V59.69c2.04-9.24 13.37-8.51 18.26-2.2q22.32 28.75 44.55 57.58 1.44 1.86 1.44-.49v-51.4q.01-4.87 1.38-7.08c2.73-4.38 10.42-4.4 13.3.05q1.31 2.03 1.31 6.12.02 37.55.01 75.09c-.01 9.93-10.73 11.64-16.22 4.66Q40.6 112.21 17.44 82.17q-1.43-1.86-1.44.48-.01 27.93 0 55.85c.01 9.21-13.1 10.76-16 1.44Zm204.19-41.87q-11.72-14.7-23.51-29.33c-3.07-3.8-5.48-7.47-3.01-11.85 3.69-6.51 11.07-4.8 15.03.37q11.02 14.43 21.93 28.86a1 .99-44.9 0 0 1.59 0q10.47-13.72 20.96-27.38 3.24-4.22 5.34-5.22c6.29-2.99 13.11 2.64 10.87 9.34q-.62 1.83-3.44 5.34-11.9 14.81-23.76 29.67a1.01 1 45.3 0 0 0 1.25q12.45 15.57 24.83 31.1 2.96 3.72 3.64 5.67c1.79 5.19-1.86 10.03-7.14 10.4-3.92.28-6.18-1.54-8.61-4.73q-11.57-15.13-23.22-30.2a1 1 0 0 0-1.59.01q-12.24 16.02-24.67 32.06c-4.8 6.21-16.05 1.89-13.92-6.54q.66-2.58 3.98-6.68 12.45-15.36 24.71-30.9a1 .99 44.8 0 0-.01-1.24Z" />
</svg>